<svg width="32" height="31" viewBox="0 0 32 31" fill="none" xmlns="http://www.w3.org/2000/svg">
  <g clip-path="url(#clip0_8220_31900)">
    <path d="M31.8542 0H0.854187V31H31.8542V0Z" fill="#32358C"/>
    <path d="M27.5402 25.1676H22.8534L21.6535 23.1222L19.2808 19.0665L21.5911 15.0186L26.3403 23.1222L27.5402 25.1676Z" fill="#1FD0B1"/>
    <path d="M19.8181 23.1223H16.9624L18.3727 20.6561L19.8181 23.1223Z" fill="#1FD0B1"/>
    <path d="M21.5911 15.0187L19.2808 19.0666L18.373 20.6562L16.9627 23.1223H12.5603L14.6641 19.4367L16.1446 16.8498L17.0484 15.2642L19.3626 11.2124L21.5911 15.0187Z" fill="#33F6C5"/>
    <path d="M18.6066 9.9228L16.2964 13.9746L15.3886 15.5641L13.912 18.1471L11.0719 23.1222L9.90311 25.1676H5.16565L6.33443 23.1222H6.40456L6.39287 23.0132L11.5121 14.0525L12.9887 11.4695L13.8965 9.87994L16.2106 5.83206L18.6066 9.9228Z" fill="#1DCDFD"/>
  </g>
  <defs>
    <clipPath id="clip0_8220_31900">
      <rect x="0.854187" width="31" height="31" rx="2.58333" fill="white"/>
    </clipPath>
  </defs>
</svg>
