<svg width="41" height="38" viewBox="0 0 41 38" fill="none" xmlns="http://www.w3.org/2000/svg">
  <path d="M40.8295 30.2545C40.8305 31.5135 40.5043 32.751 39.8828 33.8459C39.2614 34.9407 38.366 35.8553 37.2846 36.4999C36.2032 37.1444 34.9729 37.4969 33.7142 37.5226C32.4555 37.5484 31.2118 37.2466 30.1049 36.6469C30.0989 36.6454 30.0934 36.6424 30.0889 36.6382C29.9843 36.5757 29.8782 36.5147 29.7722 36.4551C28.7163 35.8086 27.8432 34.9029 27.2357 33.824C26.6283 32.7452 26.3066 31.5289 26.3014 30.2908V30.2545C26.3014 30.1252 26.3014 29.9959 26.3014 29.8666L27.638 8.03525C27.638 7.99893 27.638 7.96261 27.6453 7.92629C27.6525 7.79118 27.6569 7.65462 27.6569 7.5166C27.6572 10.0861 28.1795 12.6287 29.1922 14.9903C30.2048 17.3518 31.6868 19.4829 33.548 21.2544C34.5406 22.202 35.6321 23.0403 36.8038 23.7547C37.0517 23.9057 37.304 24.051 37.5607 24.1905C38.5654 24.8512 39.3901 25.7513 39.9607 26.8098C40.5313 27.8683 40.8299 29.052 40.8295 30.2545Z" fill="#CC3399" />
  <path d="M29.7722 36.4492C26.9763 34.8713 23.8267 34.0262 20.6165 33.9927C17.4063 33.9591 14.2397 34.7382 11.4115 36.2575C11.057 36.4478 10.7084 36.6497 10.3684 36.8618C8.69853 37.6512 6.79068 37.7747 5.03293 37.2074C3.27518 36.6401 1.79955 35.4245 0.906194 33.8079C0.0128433 32.1913 -0.231131 30.2951 0.223899 28.505C0.67893 26.7149 1.79879 25.1653 3.35568 24.1715C3.54939 24.066 3.73729 23.957 3.91937 23.8447C4.9323 23.3198 6.05451 23.0407 7.19527 23.0299C8.33604 23.019 9.46335 23.2767 10.4861 23.7822C10.6081 23.8563 10.7316 23.9275 10.8565 24.0016L29.0792 35.9858V35.9684C29.3001 36.1427 29.5315 36.3033 29.7722 36.4492Z" fill="#6633CC" />
  <path d="M27.6524 7.48163V7.51068C27.6524 8.71938 27.3508 9.90897 26.7749 10.9717C26.1991 12.0344 25.3671 12.9366 24.3545 13.5965L4.14299 23.7328L3.92507 23.8417C5.12493 23.1183 6.24201 22.2658 7.25637 21.2993C9.89694 18.7853 11.7584 15.5646 12.6187 12.0217C12.9317 10.7264 13.1084 9.40201 13.1461 8.07002C13.1461 7.89132 13.1461 7.71117 13.1461 7.52957C13.1461 7.34797 13.1461 7.1562 13.1373 6.97169C13.2491 5.0784 14.0968 3.30388 15.4995 2.02731C16.9021 0.750749 18.7484 0.0733922 20.6438 0.139981C22.5393 0.20657 24.3335 1.01182 25.6431 2.38367C26.9527 3.75552 27.6738 5.58516 27.6524 7.48163Z" fill="#33CCFF" />
  <path d="M27.6336 8.03662L26.3014 29.868C26.2485 27.3631 25.6997 24.8936 24.6865 22.6021C23.6733 20.3107 22.2159 18.2428 20.3986 16.5181C21.3998 15.5586 22.5022 14.7105 23.6863 13.9888C23.9091 13.8532 24.1343 13.7224 24.3619 13.5965C25.2986 12.9844 26.0813 12.1641 26.6488 11.1997C27.2163 10.2353 27.5534 9.15276 27.6336 8.03662Z" fill="#933486" />
  <path d="M29.0791 35.9653V35.9857L10.8623 23.9985C10.9959 24.0755 11.1311 24.1525 11.2676 24.2266C12.4714 24.8841 13.7434 25.4083 15.0609 25.7898C18.557 26.8001 22.2686 26.7931 25.7609 25.7695C26.1179 27.2378 26.2993 28.7433 26.3013 30.2543V30.2907C26.3054 31.3171 26.5277 32.331 26.9535 33.2651C27.3793 34.1991 27.9989 35.0319 28.7711 35.7082C28.8684 35.7968 28.973 35.884 29.0791 35.9653Z" fill="#5331BC" />
  <path d="M24.3545 13.5964C24.1269 13.7233 23.9017 13.8541 23.679 13.9887C21.5374 15.2929 19.674 17.0065 18.1953 19.0315C16.7165 21.0564 15.6514 23.353 15.0609 25.7899C13.7434 25.4083 12.4714 24.8841 11.2676 24.2266C11.0041 24.0823 10.7451 23.9332 10.4903 23.7792C9.50469 23.2921 8.42142 23.0348 7.32201 23.0268C6.22259 23.0187 5.13567 23.2601 4.143 23.7327L24.3545 13.5964Z" fill="#19B8DD" />
  </svg>