<svg width="107" height="21" viewBox="0 0 107 21" fill="none" xmlns="http://www.w3.org/2000/svg">
<path d="M52.5466 0.617096H48.4919V20.2701H52.5466V0.617096Z" fill="#32358C"/>
<path d="M19.5763 15.4767H19.5156V15.3399L18.3362 12.687L15.7717 6.92412L13.1533 1.03554L12.9669 0.617096H9.59586L9.37076 1.12254L6.78967 6.92412L4.22653 12.687L2.98501 15.4767L2.96844 15.5153L0.854126 20.2687H4.59664L6.72891 15.4767L6.78967 15.3399V15.4767H15.7717V15.5139L17.8874 20.2687H21.7086L19.5763 15.4767V15.4767ZM7.96904 12.687L11.242 5.33045L14.515 12.687H7.96904V12.687Z" fill="#32358C"/>
<path d="M42.5036 0.618378L34.9619 17.5743L33.7618 20.2686L33.65 20.5214H32.4154L32.3035 20.2686L31.044 17.4376L23.5618 0.618378H27.4189L32.9733 13.1026L38.5263 0.618378H42.5036Z" fill="#32358C"/>
<path d="M80.0107 20.2686H75.3319L69.2389 12.9673L63.1445 20.2686H58.6991L67.0155 10.3047L58.9325 0.618378H63.6113L69.3549 7.50128L75.0985 0.618378H79.5439L71.5783 10.1652L80.0107 20.2686Z" fill="#32358C"/>
<path d="M95.2414 0.166779C89.2175 0.166779 84.3357 4.79313 84.3357 10.5008C84.3357 16.2085 89.2175 20.8334 95.2414 20.8334C101.265 20.8334 106.146 16.2071 106.146 10.5008C106.146 4.79451 101.264 0.166779 95.2414 0.166779ZM95.2414 17.3658C91.2393 17.3658 87.9953 14.2917 87.9953 10.5008C87.9953 6.70996 91.2393 3.63447 95.2414 3.63447C99.2436 3.63447 102.486 6.70858 102.486 10.5008C102.486 14.293 99.2422 17.3658 95.2414 17.3658V17.3658Z" fill="#32358C"/>
</svg>
